#N canvas 295 531 450 407 12;
#X obj 79 36 inlet;
#X obj 229 36 inlet;
#X obj 340 36 inlet;
#X obj 79 361 outlet;
#X text 228 10 BPM;
#X text 340 10 FPS;
#X obj 229 222 / 1;
#X obj 229 180 t b f;
#X obj 229 201 60;
#X obj 79 82 unpack f f f;
#X obj 27 177 spigot;
#X obj 79 177 spigot;
#X obj 97 144 == 0;
#X obj 323 88 loadbang;
#X obj 323 109 f \$1;
#X obj 323 130 sel 0;
#X obj 323 151 120;
#X obj 323 204 loadbang;
#X obj 323 246 sel 0;
#X obj 323 225 f \$2;
#X obj 323 267 20;
#X obj 7 82 loadbang;
#X obj 7 103 1;
#X text 45 10 number of frames;
#X text 46 380 number of beats;
#X obj 27 250 / 1;
#X obj 27 293 / 1;
#X obj 242 110 == 0;
#X obj 191 110 == 0;
#X obj 97 117 &&;
#X obj 242 131 t b f;
#X msg 79 293 0;
#X connect 0 0 9 0;
#X connect 1 0 7 0;
#X connect 1 0 28 0;
#X connect 2 0 25 1;
#X connect 2 0 27 0;
#X connect 6 0 26 1;
#X connect 7 0 8 0;
#X connect 7 1 6 1;
#X connect 8 0 6 0;
#X connect 9 0 10 0;
#X connect 9 0 11 0;
#X connect 9 1 7 0;
#X connect 9 1 28 0;
#X connect 9 2 25 1;
#X connect 10 0 25 0;
#X connect 11 0 31 0;
#X connect 12 0 10 1;
#X connect 13 0 14 0;
#X connect 14 0 15 0;
#X connect 15 0 16 0;
#X connect 15 1 7 0;
#X connect 16 0 7 0;
#X connect 17 0 19 0;
#X connect 18 0 20 0;
#X connect 18 1 25 1;
#X connect 19 0 18 0;
#X connect 20 0 25 1;
#X connect 21 0 22 0;
#X connect 22 0 10 1;
#X connect 25 0 26 0;
#X connect 26 0 3 0;
#X connect 27 0 30 0;
#X connect 28 0 29 0;
#X connect 29 0 12 0;
#X connect 29 0 11 1;
#X connect 30 0 29 0;
#X connect 30 1 29 1;
#X connect 31 0 3 0;
