#N canvas 64 101 491 389 12;
#X obj 78 39 inlet;
#X obj 240 39 inlet;
#X obj 138 314 outlet;
#X obj 272 314 outlet;
#X text 78 11 Width;
#X text 240 11 Height;
#X text 118 340 Output width;
#X text 253 340 Output height;
#X obj 240 185 / 1;
#X obj 240 129 t f f;
#X obj 240 225 * 1;
#X obj 170 185 / 1;
#X obj 138 129 t f f;
#X obj 170 225 * 1;
#X obj 78 79 route set;
#X obj 12 129 unpack f f;
#X obj 354 38 loadbang;
#X obj 334 73 f \$1;
#X obj 334 111 sel 0;
#X obj 381 111 sel 0;
#X obj 381 73 f \$2;
#X connect 0 0 14 0;
#X connect 1 0 9 0;
#X connect 8 0 10 0;
#X connect 9 0 8 0;
#X connect 9 1 3 0;
#X connect 10 0 2 0;
#X connect 11 0 13 0;
#X connect 12 0 2 0;
#X connect 12 1 11 0;
#X connect 13 0 3 0;
#X connect 14 0 15 0;
#X connect 14 1 12 0;
#X connect 15 0 11 1;
#X connect 15 0 10 1;
#X connect 15 1 13 1;
#X connect 15 1 8 1;
#X connect 16 0 17 0;
#X connect 16 0 20 0;
#X connect 17 0 18 0;
#X connect 18 1 11 1;
#X connect 18 1 10 1;
#X connect 19 1 13 1;
#X connect 19 1 8 1;
#X connect 20 0 19 0;
