#N canvas 259 156 649 636 10;
#X obj 252 74 hsl 128 15 0 127 0 0 empty empty empty -2 -8 0 10 -262144
-1 -1 0 1;
#X obj 252 108 hsl 128 15 0 127 0 0 empty empty empty -2 -8 0 10 -262144
-1 -1 0 1;
#X obj 252 57 hsl 128 15 0 127 0 0 empty empty empty -2 -8 0 10 -262144
-1 -1 0 1;
#X obj 252 125 hsl 128 15 0 127 0 0 empty empty empty -2 -8 0 10 -262144
-1 -1 0 1;
#X obj 252 91 hsl 128 15 0 127 0 0 empty empty empty -2 -8 0 10 -262144
-1 -1 0 1;
#X obj 252 40 hsl 128 15 0 127 0 0 empty empty empty -2 -8 0 10 -262144
-1 -1 0 1;
#X obj 152 263 pack f f f f f f;
#X obj 152 240 + 128;
#X obj 346 166 loadbang;
#X obj 152 289 f0_fsk 1225 4900 7350 6 16;
#X text 258 263 6ch led pwm;
#X text 20 255 ch 2-6 must be 0-127;
#X text 22 240 ch 1 must be 128-255;
#X obj 99 467 dac~;
#X text 41 491 always send data signal out 2nd outlet at full volume
;
#X obj 346 193 t b b b b b b;
#X text 385 39 channel 0;
#X text 385 56 channel 1;
#X text 385 73 channel 2;
#X text 385 90 channel 3;
#X text 385 108 channel 4;
#X text 385 124 channel 5;
#X text 252 17 6 channels pwm \, 0-127;
#X obj 152 437 *~;
#X obj 201 435 tgl 15 0 empty empty empty 17 7 0 10 -262144 -1 -1 0
1;
#X text 222 436 turn on to hear the data signal. WARNING: it is loud
;
#X obj 61 -88 cnv 15 400 40 empty empty f0_fsk 60 20 0 20 -233017 -66577
0;
#X text 391 253 \$1 - baudrate;
#X text 391 269 \$2 - minimum frequency;
#X text 391 285 \$3 - maximum frequency;
#X text 391 301 \$4 - max message length;
#X text 391 317 \$5 - duration of init signal in samples;
#X text 387 236 arguments:;
#X text 212 347 use this to trigger a new command for fastest updaterate
;
#X text 212 328 2nd outlet bang when ready;
#X text 94 -46 soft modem data signal generation in pd-vanilla;
#X text 93 -30 for running on iphone or android with custom arduino
circuit;
#N canvas 25 49 420 300 META 0;
#X text 10 25 AUTHOR f@fredrikolofsson.com;
#X text 10 10 VERSION 2;
#X text 13 41 NAME f0abspd;
#X text 12 57 DESCRIPTION frequency-shift keying for pd-vanilla;
#X restore 6 -75 pd META;
#X connect 0 0 6 2;
#X connect 1 0 6 4;
#X connect 2 0 6 1;
#X connect 3 0 6 5;
#X connect 4 0 6 3;
#X connect 5 0 7 0;
#X connect 6 0 9 0;
#X connect 7 0 6 0;
#X connect 8 0 15 0;
#X connect 9 0 23 0;
#X connect 9 1 15 0;
#X connect 15 0 5 0;
#X connect 15 1 2 0;
#X connect 15 2 0 0;
#X connect 15 3 4 0;
#X connect 15 4 1 0;
#X connect 15 5 3 0;
#X connect 23 0 13 1;
#X connect 24 0 23 1;
