#N canvas 736 22 653 517 10;
#X obj 40 30 inlet;
#X obj 55 467 outlet~;
#X obj 203 469 outlet;
#X text 56 489 signal;
#X text 190 490 bang when finished;
#X obj 55 366 osc~;
#X obj 448 13 loadbang;
#X obj 425 476 - \$2;
#X obj 425 456 f \$3;
#X obj 127 92 f \$1;
#X obj 448 34 f \$4;
#X text 19 7 list of integers;
#X obj 481 392 > 0;
#X obj 481 476 tabwrite \$0-fsk;
#X obj 531 417 f;
#X obj 557 417 + 1;
#X obj 481 416 t f b;
#X obj 388 353 & 128;
#X obj 425 353 & 64;
#X obj 456 353 & 32;
#X obj 487 353 & 16;
#X obj 518 353 & 8;
#X obj 543 353 & 4;
#X obj 568 353 & 2;
#X obj 593 353 & 1;
#X obj 390 317 t b b f f f f f f f f b;
#X msg 345 360 1;
#X msg 347 386 0;
#X obj 519 153 s \$0-fsk;
#X msg 519 133 resize \$1;
#X obj 448 141 f;
#X obj 448 204 tabwrite \$0-fsk;
#X obj 535 184 - 1;
#X obj 252 284 table \$0-fsk;
#X obj 203 385 t b b;
#X msg 142 205 1;
#X msg 230 410 0;
#X obj 55 208 pack;
#X obj 55 234 line~;
#X obj 55 256 tabread~ \$0-fsk;
#X msg 112 205 0;
#X obj 203 365 del;
#X obj 546 277 f \$5;
#X obj 425 436 loadbang;
#X obj 390 252 until;
#X obj 390 273 list append;
#X obj 390 294 list split 1;
#X obj 483 287 t b;
#X obj 448 55 * 11;
#X obj 448 120 until;
#X obj 480 141 + 1;
#X obj 448 162 t b f f;
#X obj 40 90 list length;
#X obj 390 223 t b l b;
#X obj 127 71 loadbang;
#X obj 40 57 t l l;
#X obj 40 111 * 11;
#X obj 40 132 + \$5;
#X obj 40 153 t b f f b b;
#X obj 76 179 *;
#X obj 448 97 t f f;
#X text 226 248 f.olofsson 2011-06-10;
#X text 226 228 frequency-shift keying;
#X obj 448 76 + \$5;
#X text 191 20 \$1 - baudrate;
#X text 191 36 \$2 - minimum frequency;
#X text 191 52 \$3 - maximum frequency;
#X text 191 68 \$4 - max message length;
#X text 191 84 \$5 - duration of init signal in samples;
#X obj 448 184 f \$3;
#X obj 481 436 *;
#X obj 481 456 + \$2;
#X obj 127 112 t b f;
#X obj 127 152 /;
#X msg 127 132 1000;
#X obj 55 409 *~ 0;
#X connect 0 0 55 0;
#X connect 5 0 75 0;
#X connect 6 0 10 0;
#X connect 7 0 70 1;
#X connect 8 0 7 0;
#X connect 9 0 72 0;
#X connect 10 0 48 0;
#X connect 12 0 16 0;
#X connect 14 0 15 0;
#X connect 14 0 13 1;
#X connect 15 0 14 1;
#X connect 16 0 70 0;
#X connect 16 1 14 0;
#X connect 17 0 12 0;
#X connect 18 0 12 0;
#X connect 19 0 12 0;
#X connect 20 0 12 0;
#X connect 21 0 12 0;
#X connect 22 0 12 0;
#X connect 23 0 12 0;
#X connect 24 0 12 0;
#X connect 25 0 26 0;
#X connect 25 1 26 0;
#X connect 25 2 17 0;
#X connect 25 3 18 0;
#X connect 25 4 19 0;
#X connect 25 5 20 0;
#X connect 25 6 21 0;
#X connect 25 7 22 0;
#X connect 25 8 23 0;
#X connect 25 9 24 0;
#X connect 25 10 27 0;
#X connect 26 0 16 0;
#X connect 27 0 16 0;
#X connect 29 0 28 0;
#X connect 30 0 51 0;
#X connect 32 0 31 1;
#X connect 34 0 2 0;
#X connect 34 1 36 0;
#X connect 35 0 75 1;
#X connect 36 0 75 1;
#X connect 37 0 38 0;
#X connect 38 0 39 0;
#X connect 39 0 5 0;
#X connect 40 0 38 0;
#X connect 41 0 34 0;
#X connect 42 0 14 1;
#X connect 43 0 8 0;
#X connect 44 0 45 0;
#X connect 45 0 46 0;
#X connect 46 0 25 0;
#X connect 46 1 45 1;
#X connect 46 2 47 0;
#X connect 47 0 44 1;
#X connect 48 0 63 0;
#X connect 49 0 30 0;
#X connect 50 0 30 1;
#X connect 51 0 69 0;
#X connect 51 1 50 0;
#X connect 51 2 32 0;
#X connect 52 0 56 0;
#X connect 53 0 44 0;
#X connect 53 1 45 1;
#X connect 53 2 42 0;
#X connect 54 0 9 0;
#X connect 55 0 52 0;
#X connect 55 1 53 0;
#X connect 56 0 57 0;
#X connect 57 0 58 0;
#X connect 58 0 41 0;
#X connect 58 1 37 0;
#X connect 58 2 59 0;
#X connect 58 3 40 0;
#X connect 58 4 35 0;
#X connect 59 0 41 1;
#X connect 59 0 37 1;
#X connect 60 0 49 0;
#X connect 60 1 29 0;
#X connect 63 0 60 0;
#X connect 69 0 31 0;
#X connect 70 0 71 0;
#X connect 71 0 13 0;
#X connect 72 0 74 0;
#X connect 72 1 73 1;
#X connect 73 0 59 1;
#X connect 74 0 73 0;
#X connect 75 0 1 0;
